# xmcd
#
# Track frame offsets:
#	150
#	23030
#	39620
#	62827
#	87740
#	104085
#	141015
#	177737
#	204555
#	229195
#	266437
#
# Disc length: 3914 seconds
#
# Revision: 1
# Processed by: cddbd v1.5.2PL0 Copyright (c) Steve Scherf et al.
# Submitted via: EasyCDDAExtractor 15.0.0.1
#
DISCID=a40f480b
DTITLE=Various Artist - Texas Blueswomen
DYEAR=1996
DGENRE=Blues
TTITLE0=Chonita Turner - Baby I Love You
TTITLE1=Chonita Turner - Do Right Woman
TTITLE2=Chonita Turner - Misty \\Blues
TTITLE3=Chonita Turner - Neither One Of Us
TTITLE4=Jav-Lyn - Just A Little Bit
TTITLE5=Jav-Lyn - Tonight Is The Night
TTITLE6=Jav-Lyn - Doctor Feel Good
TTITLE7=Lady Lotion - Right Arm For Your Love
TTITLE8=Lady Lotion - Damn Your Eyes
TTITLE9=Lady Lotion - Loving You Is Wrong
TTITLE10=Texas Blueswomen - Proud mary
EXTD=
EXTT0=
EXTT1=
EXTT2=
EXTT3=
EXTT4=
EXTT5=
EXTT6=
EXTT7=
EXTT8=
EXTT9=
EXTT10=
PLAYORDER=
